<svg width="1512" height="623" viewBox="0 0 1512 623" fill="none" xmlns="http://www.w3.org/2000/svg">
<path opacity="0.1" d="M74.0359 108.44C-12.8822 1.89144 -72.8706 64.0447 -92 108.44V727H1521V34.8812C1431.3 -40.9063 1368.34 23.1788 1354.41 72.775C1314.85 61.0725 1299.25 73.8895 1290.89 120.142C1215.67 76.1186 1158.28 107.325 1121.51 189.243C1086.97 139.646 1031.25 166.395 1008.41 202.06C999.491 190.357 983.891 191.472 965.504 202.06C868.557 87.8211 803.925 202.06 793.339 255C737.622 246.641 711.436 267.817 691.935 322.428C661.848 287.878 598.331 302.367 586.63 322.428C591.087 275.061 550.971 266.702 528.127 273.946C506.398 192.029 441.209 225.465 417.251 246.083C396.636 237.167 383.821 239.953 352.62 246.083C334.233 208.19 307.489 198.716 281.859 202.06C271.273 103.982 177.112 116.799 153.711 126.829C139.782 98.9663 112.48 93.3938 74.0359 108.44Z" fill="#8CD5F0"/>
<path opacity="0.2" d="M88.0359 114.44C1.11779 7.89144 -58.8706 70.0447 -78 114.44V733H1535V40.8812C1445.3 -34.9063 1382.34 29.1788 1368.41 78.775C1328.85 67.0725 1313.25 79.8895 1304.89 126.142C1229.67 82.1186 1172.28 113.325 1135.51 195.243C1100.97 145.646 1045.25 172.395 1022.41 208.06C1013.49 196.357 997.891 197.472 979.504 208.06C882.557 93.8211 817.925 208.06 807.339 261C751.622 252.641 725.436 273.817 705.935 328.428C675.848 293.878 612.331 308.367 600.63 328.428C605.087 281.061 564.971 272.702 542.127 279.946C520.398 198.029 455.209 231.465 431.251 252.083C410.636 243.167 397.821 245.953 366.62 252.083C348.233 214.19 321.489 204.716 295.859 208.06C285.273 109.982 191.112 122.799 167.711 132.829C153.782 104.966 126.48 99.3938 88.0359 114.44Z" fill="#8CD5F0"/>
</svg>
